<mxfile host="Electron" modified="2023-05-08T04:50:49.817Z" agent="Mozilla/5.0 (Windows NT 10.0; Win64; x64) AppleWebKit/537.36 (KHTML, like Gecko) draw.io/21.2.8 Chrome/112.0.5615.165 Electron/24.2.0 Safari/537.36" etag="iYjlv5Ki3NsaS0HYH8Vz" version="21.2.8" type="device">
  <diagram name="Page-1" id="rk2bmet3L0-hgVss5Ew7">
    <mxGraphModel dx="940" dy="703" grid="1" gridSize="10" guides="1" tooltips="1" connect="1" arrows="1" fold="1" page="1" pageScale="1" pageWidth="827" pageHeight="1169" math="0" shadow="0">
      <root>
        <mxCell id="0" />
        <mxCell id="1" parent="0" />
        <mxCell id="7fWvvYQD-zoAsZCZ6saR-6" value="loop" style="rounded=1;whiteSpace=wrap;html=1;fillColor=#f5f5f5;fontColor=#333333;strokeColor=#666666;sketch=1;curveFitting=1;jiggle=2;dashed=1;fontFamily=Comic Sans MS;fontStyle=1" vertex="1" parent="1">
          <mxGeometry x="280" y="120" width="170" height="300" as="geometry" />
        </mxCell>
        <mxCell id="7fWvvYQD-zoAsZCZ6saR-7" value="input / output" style="shape=parallelogram;perimeter=parallelogramPerimeter;whiteSpace=wrap;html=1;fixedSize=1;rounded=1;fillColor=#dae8fc;strokeColor=#6c8ebf;sketch=1;curveFitting=1;jiggle=2;fontFamily=Comic Sans MS;fontStyle=1" vertex="1" parent="1">
          <mxGeometry x="305" y="480" width="120" height="40" as="geometry" />
        </mxCell>
        <mxCell id="7fWvvYQD-zoAsZCZ6saR-8" value="terminal" style="strokeWidth=2;html=1;shape=mxgraph.flowchart.terminator;whiteSpace=wrap;fillColor=#d5e8d4;strokeColor=#82b366;fontFamily=Comic Sans MS;fontStyle=1;sketch=1;curveFitting=1;jiggle=2;" vertex="1" parent="1">
          <mxGeometry x="315" y="565" width="100" height="40" as="geometry" />
        </mxCell>
        <mxCell id="7fWvvYQD-zoAsZCZ6saR-9" value="decision" style="strokeWidth=2;html=1;shape=mxgraph.flowchart.decision;whiteSpace=wrap;fillColor=#fff2cc;strokeColor=#d6b656;fontFamily=Comic Sans MS;fontStyle=1;sketch=1;curveFitting=1;jiggle=2;" vertex="1" parent="1">
          <mxGeometry x="555" y="450" width="100" height="100" as="geometry" />
        </mxCell>
        <mxCell id="7fWvvYQD-zoAsZCZ6saR-10" value="process" style="rounded=1;whiteSpace=wrap;html=1;strokeWidth=2;fontFamily=Comic Sans MS;fontSize=12;fillColor=#e1d5e7;strokeColor=#9673a6;fontStyle=1;glass=0;sketch=1;curveFitting=1;jiggle=2;" vertex="1" parent="1">
          <mxGeometry x="545" y="565" width="120" height="40" as="geometry" />
        </mxCell>
        <mxCell id="7fWvvYQD-zoAsZCZ6saR-11" value="function" style="rounded=1;whiteSpace=wrap;html=1;fillColor=#f8cecc;strokeColor=#b85450;sketch=1;curveFitting=1;jiggle=2;dashed=1;fontFamily=Comic Sans MS;fontStyle=1" vertex="1" parent="1">
          <mxGeometry x="520" y="120" width="170" height="300" as="geometry" />
        </mxCell>
        <mxCell id="7fWvvYQD-zoAsZCZ6saR-12" value="flow" style="endArrow=classic;html=1;rounded=0;sketch=1;curveFitting=1;jiggle=2;strokeWidth=2;fontStyle=1;fontFamily=Comic Sans MS;" edge="1" parent="1">
          <mxGeometry width="50" height="50" relative="1" as="geometry">
            <mxPoint x="320" y="680" as="sourcePoint" />
            <mxPoint x="480" y="680" as="targetPoint" />
          </mxGeometry>
        </mxCell>
      </root>
    </mxGraphModel>
  </diagram>
</mxfile>
